Coordinates
version=1
nRows=13
nColumns=40
inDegrees=yes

Units are S.I. units (second, meters, Newtons, ...)
If the header above contains a line with 'inDegrees', this indicates whether rotational values are in degrees (yes) or radians (no).

endheader
time	pelvis_tilt	pelvis_list	pelvis_rotation	pelvis_tx	pelvis_ty	pelvis_tz	hip_flexion_r	hip_adduction_r	hip_rotation_r	knee_angle_r	knee_angle_r_beta	ankle_angle_r	subtalar_angle_r	mtp_angle_r	hip_flexion_l	hip_adduction_l	hip_rotation_l	knee_angle_l	knee_angle_l_beta	ankle_angle_l	subtalar_angle_l	mtp_angle_l	lumbar_extension	lumbar_bending	lumbar_rotation	arm_flex_r	arm_add_r	arm_rot_r	elbow_flex_r	pro_sup_r	wrist_flex_r	wrist_dev_r	arm_flex_l	arm_add_l	arm_rot_l	elbow_flex_l	pro_sup_l	wrist_flex_l	wrist_dev_l
     17.66500000	     38.45739963	    -12.79264517	    178.75283971	      0.35785679	      0.69111209	     -0.59144045	    101.19867491	     -7.62849628	     12.85049854	     81.03168144	      1.41426964	     20.28120748	      0.00000000	      0.00000000	     93.73454111	     -5.87294494	    -10.96701651	     79.41451202	      1.38604471	     23.67123520	      0.00000000	      0.00000000	    -33.89767317	    -10.08961885	     -6.75656343	     55.01663919	    -12.24659822	     40.31931231	      9.61063689	      5.30789472	      0.00000000	      0.00000000	     62.31438312	    -16.20129105	     36.74866195	     14.38443021	     87.60461885	      0.00000000	      0.00000000
     17.67000000	     38.67106913	    -12.82632639	    178.94206097	      0.35776104	      0.69206021	     -0.59083735	    101.28737331	     -7.88143096	     12.81311704	     80.78952652	      1.41004324	     20.13111022	      0.00000000	      0.00000000	     93.80061883	     -5.54866509	    -10.87110712	     79.08958675	      1.38037369	     23.46675186	      0.00000000	      0.00000000	    -33.76970027	     -9.98298531	     -6.92975035	     55.06376647	    -12.23316803	     40.37481493	      9.61381560	      5.32107722	      0.00000000	      0.00000000	     62.28864801	    -16.13525085	     36.37704433	     14.34479119	     87.61546308	      0.00000000	      0.00000000
     17.67500000	     38.77221881	    -12.81886507	    178.90540027	      0.35755308	      0.69302193	     -0.59093399	    101.21989415	     -7.84675571	     12.75617902	     80.55879866	      1.40601628	     20.07647825	      0.00000000	      0.00000000	     93.74893128	     -5.58615412	    -10.88833288	     78.87104334	      1.37655939	     23.41640130	      0.00000000	      0.00000000	    -33.72932349	     -9.98354450	     -6.87699191	     55.06908916	    -12.26825170	     40.37570879	      9.63572022	      5.32836660	      0.00000000	      0.00000000	     62.30794845	    -16.11360351	     36.28838057	     14.31732306	     87.62820329	      0.00000000	      0.00000000
     17.68000000	     38.81754924	    -12.80754844	    178.81397415	      0.35721048	      0.69381169	     -0.59111200	    101.14205351	     -7.75542021	     12.72093827	     80.43136552	      1.40379215	     20.02889275	      0.00000000	      0.00000000	     93.68274442	     -5.72687553	    -10.95280467	     78.78132635	      1.37499353	     23.40781340	      0.00000000	      0.00000000	    -33.70171023	    -10.00404769	     -6.78954484	     55.06065537	    -12.27370993	     40.37662771	      9.63837178	      5.32985199	      0.00000000	      0.00000000	     62.29191023	    -16.10494240	     36.26665853	     14.30152491	     87.62998360	      0.00000000	      0.00000000
     17.68500000	     38.95379674	    -12.81969162	    178.82671279	      0.35714946	      0.69506132	     -0.59107428	    101.08333533	     -7.78855466	     12.65782689	     80.10920357	      1.39816936	     19.90211928	      0.00000000	      0.00000000	     93.61963325	     -5.69207624	    -10.98355292	     78.44553978	      1.36913295	     23.27970711	      0.00000000	      0.00000000	    -33.66050188	     -9.99260851	     -6.78905112	     55.09706459	    -12.31400258	     40.34909446	      9.68516867	      5.33946146	      0.00000000	      0.00000000	     62.35585227	    -16.05530431	     36.22863470	     14.25891791	     87.63192060	      0.00000000	      0.00000000
     17.69000000	     39.05702157	    -12.82638946	    178.84887329	      0.35694762	      0.69605712	     -0.59097622	    101.01545897	     -7.80446645	     12.65551076	     79.86233065	      1.39386062	     19.84275503	      0.00000000	      0.00000000	     93.56665622	     -5.63543238	    -10.97539223	     78.20477172	      1.36493076	     23.20870165	      0.00000000	      0.00000000	    -33.62387501	     -9.96034691	     -6.79993210	     55.09733640	    -12.34370901	     40.28686789	      9.74662401	      5.34945716	      0.00000000	      0.00000000	     62.38265452	    -16.01954831	     36.19260814	     14.18785653	     87.63885093	      0.00000000	      0.00000000
     17.69500000	     39.12462919	    -12.85658638	    178.80815690	      0.35669160	      0.69700720	     -0.59086677	    100.95384949	     -7.79364621	     12.65095571	     79.66356358	      1.39039148	     19.74380898	      0.00000000	      0.00000000	     93.48582118	     -5.44610836	    -10.83749818	     77.90352399	      1.35967299	     23.25489035	      0.00000000	      0.00000000	    -33.60095381	     -9.97166673	     -6.77011603	     55.11165635	    -12.37474055	     40.23347289	      9.77785180	      5.35621233	      0.00000000	      0.00000000	     62.39931550	    -15.98773287	     36.18773642	     14.16150822	     87.64640357	      0.00000000	      0.00000000
     17.70000000	     39.23763221	    -12.79982419	    178.83393231	      0.35654983	      0.69810101	     -0.59092443	    100.89675233	     -7.83610989	     12.53874350	     79.44859347	      1.38663954	     19.65120922	      0.00000000	      0.00000000	     93.42566330	     -5.66902434	    -11.06555719	     77.75808224	      1.35713456	     23.14987992	      0.00000000	      0.00000000	    -33.55285132	     -9.88916987	     -6.75400785	     55.13297101	    -12.38149844	     40.20379985	      9.80103954	      5.36019902	      0.00000000	      0.00000000	     62.42237389	    -15.98773321	     36.20764772	     14.14102168	     87.64956252	      0.00000000	      0.00000000
     17.70500000	     39.26735368	    -12.78947004	    178.74141419	      0.35623493	      0.69886079	     -0.59119863	    100.80969152	     -7.73399408	     12.50130740	     79.34145735	      1.38476966	     19.60848616	      0.00000000	      0.00000000	     93.34401184	     -5.79777056	    -11.11002060	     77.66173318	      1.35545295	     23.12661386	      0.00000000	      0.00000000	    -33.52091731	     -9.91785189	     -6.67638921	     55.08369075	    -12.36906897	     40.19826823	      9.79681881	      5.35954571	      0.00000000	      0.00000000	     62.39870143	    -15.99646342	     36.21260759	     14.13504971	     87.65149303	      0.00000000	      0.00000000
     17.71000000	     39.42991056	    -12.81753592	    178.78103013	      0.35626488	      0.70036059	     -0.59102101	    100.74455641	     -7.81764121	     12.43492842	     78.92354855	      1.37747578	     19.45635408	      0.00000000	      0.00000000	     93.26463210	     -5.70331288	    -11.13284539	     77.23280034	      1.34796666	     22.95066925	      0.00000000	      0.00000000	    -33.48772083	     -9.88672632	     -6.71526049	     55.17793279	    -12.40569404	     40.13857322	      9.86172439	      5.36634516	      0.00000000	      0.00000000	     62.45879704	    -15.98740242	     36.22911772	     14.13386760	     87.65296644	      0.00000000	      0.00000000
     17.71500000	     39.45271018	    -12.79866067	    178.71130643	      0.35594872	      0.70106430	     -0.59123762	    100.64738382	     -7.71839304	     12.42858276	     78.82154828	      1.37569554	     19.41428859	      0.00000000	      0.00000000	     93.18801427	     -5.81045186	    -11.17731620	     77.14905914	      1.34650510	     22.94199236	      0.00000000	      0.00000000	    -33.45178551	     -9.88938774	     -6.64809931	     55.13121870	    -12.39076338	     40.13396960	      9.85189603	      5.36468066	      0.00000000	      0.00000000	     62.41325553	    -15.98872165	     36.22247524	     14.11915279	     87.65379859	      0.00000000	      0.00000000
     17.72000000	     39.59664277	    -12.81956613	    178.75224616	      0.35599064	      0.70257464	     -0.59104901	    100.58867828	     -7.83354318	     12.34964519	     78.44314370	      1.36909113	     19.22874197	      0.00000000	      0.00000000	     93.10178095	     -5.71705750	    -11.21769941	     76.73807048	      1.33933199	     22.77484506	      0.00000000	      0.00000000	    -33.42565069	     -9.84162214	     -6.68594091	     55.23450109	    -12.42446293	     40.09291883	      9.87156182	      5.35432260	      0.00000000	      0.00000000	     62.45558185	    -15.98536477	     36.21166177	     14.14259407	     87.65455540	      0.00000000	      0.00000000
     17.72500000	     39.67724821	    -12.82262282	    178.77255076	      0.35588160	      0.70369204	     -0.59100371	    100.47780336	     -7.84302069	     12.34375683	     78.16197894	      1.36418388	     19.15635767	      0.00000000	      0.00000000	     93.02033703	     -5.67342651	    -11.24328054	     76.47305121	      1.33470653	     22.66939981	      0.00000000	      0.00000000	    -33.40269579	     -9.80049441	     -6.72286625	     55.27347425	    -12.40343226	     40.06534549	      9.88061189	      5.34332953	      0.00000000	      0.00000000	     62.45219842	    -15.99643841	     36.14971123	     14.13955114	     87.65259178	      0.00000000	      0.00000000
